<?xml version="1.0" encoding="utf-8"?>
<!-- Generator: Adobe Illustrator 16.0.3, SVG Export Plug-In . SVG Version: 6.00 Build 0)  -->
<!DOCTYPE svg PUBLIC "-//W3C//DTD SVG 1.1//EN" "http://www.w3.org/Graphics/SVG/1.1/DTD/svg11.dtd">
<svg version="1.1" xmlns="http://www.w3.org/2000/svg" xmlns:xlink="http://www.w3.org/1999/xlink" x="0px" y="0px"
	 width="418.989px" height="205px" viewBox="-16.494 0 418.989 205" enable-background="new -16.494 0 418.989 205"
	 xml:space="preserve">
<g id="Capa_1">
	<title>400</title>
	<desc>Created with Sketch.</desc>
	<g id="Default-Pages" opacity="0.5">
		<g id="access" transform="translate(-502.000000, -293.000000)">
			<g id="box" transform="translate(438.000000, 256.000000)">
				<g id="header">
					<path id="_x34_01" fill="#FFFFFF" d="M153.412,177.34h34.453v7.383h-34.453V239h-7.383v-54.277H49.506v-4.102l95.02-140.684
						h8.887V177.34z M60.99,177.34h85.039V48.824l-11.484,18.867L60.99,177.34z M327.729,157.789
						c0,26.706-5.195,47.373-15.586,62.002s-24.975,21.943-43.75,21.943c-18.686,0-33.315-7.383-43.887-22.148
						c-10.573-14.766-15.859-35.547-15.859-62.344v-36.094c0-26.433,5.218-47.054,15.654-61.865
						c10.436-14.812,25.042-22.217,43.819-22.217c18.867,0,33.518,7.405,43.955,22.217c10.436,14.812,15.654,35.615,15.654,62.412
						V157.789z M320.346,121.148c0-24.154-4.535-42.975-13.604-56.465c-9.07-13.49-21.943-20.234-38.623-20.234
						c-16.772,0-29.646,6.768-38.624,20.303c-8.979,13.535-13.467,32.562-13.467,57.08v35.684c0,24.063,4.603,42.884,13.809,56.465
						c9.205,13.581,22.057,20.371,38.555,20.371c16.588,0,29.395-6.79,38.418-20.371s13.535-32.63,13.535-57.148V121.148z"/>
				</g>
			</g>
		</g>
	</g>
</g>
<g id="Capa_2">
	<path opacity="0.5" fill="#FFFFFF" enable-background="new    " d="M402.195,120.789c0,26.706-5.194,47.373-15.586,62.002
		c-10.39,14.629-24.973,21.943-43.75,21.943c-18.685,0-33.313-7.383-43.886-22.148s-15.86-35.547-15.86-62.344V84.148
		c0-26.432,5.219-47.054,15.655-61.865C309.203,7.472,323.81,0.066,342.586,0.066c18.866,0,33.519,7.406,43.955,22.217
		c10.436,14.811,15.653,35.615,15.653,62.412V120.789z M394.813,84.149c0-24.154-4.535-42.976-13.604-56.465
		c-9.07-13.49-21.943-20.235-38.623-20.235c-16.771,0-29.646,6.768-38.623,20.303c-8.979,13.535-13.468,32.562-13.468,57.08v35.684
		c0,24.063,4.604,42.885,13.81,56.465c9.205,13.58,22.057,20.371,38.554,20.371c16.589,0,29.396-6.789,38.418-20.371
		c9.024-13.58,13.536-32.631,13.536-57.148V84.149L394.813,84.149z"/>
</g>
</svg>
